<svg id="Layer_1" enable-background="new 0 0 512 512" height="512" viewBox="0 0 512 512" width="512" xmlns="http://www.w3.org/2000/svg"><g><g><path d="m489 194.494v39.997h15.5v211.762h-497v-211.762h15.5v-39.997h-15.5v-98.191h497v98.191z" fill="#56788b"/><path d="m489 194.494v39.997h15.5v211.762h-497v-19.998h467.71c5.13 0 9.29-4.16 9.29-9.289v-174.726c0-4.34-3.57-7.659-7.91-7.749-4.21-.08-7.59-3.52-7.59-7.749v-24.498c0-4.22 3.38-7.659 7.59-7.739 4.34-.09 7.91-3.41 7.91-7.749v-90.453h20v98.191z" fill="#415e6f"/><path d="m450.996 126.303v268.746l-21.21 21.21h-347.58l-21.21-21.21v-268.746z" fill="#99e7fa"/><path d="m228.772 446.25h54.455v58.447h-54.455z" fill="#dae1ea"/><path d="m263.227 446.25h20v58.447h-20z" fill="#b9cfdf"/></g><path d="m386.596 274.751c0 4-.15 39.729-5.28 59.199-4.36 16.56-17.25 29.62-33.65 34.079-18.29 4.98-55.31 5.39-91.66 5.39s-73.37-.41-91.66-5.4c-16.39-4.45-29.29-17.51-33.64-34.079-5.14-19.46-5.28-55.189-5.28-59.189v-148.448h261.13v148.448z" fill="#4dd4f7"/><g><path d="m7.5 7.503h30v29.95h-30z" fill="#ff4656"/><path d="m474.5 7.503h30v29.95h-30z" fill="#ff4656" transform="matrix(-1 0 0 -1 978.999 44.956)"/><path d="m241 7.503h30v29.95h-30z" fill="#00cec8" transform="matrix(-1 0 0 -1 511.999 44.956)"/></g><g><path d="m366.596 274.751s0 36.569-4.62 54.099c-2.54 9.67-10.04 17.29-19.55 19.88-4.29 1.17-10.17 2.04-16.99 2.7-20.63 1.99-49.83 1.99-69.43 1.99-26.07 0-69.16 0-86.41-4.69-9.51-2.59-17.01-10.21-19.55-19.88-4.62-17.53-4.62-54.099-4.62-54.099s0-36.58 4.62-54.109c2.54-9.67 10.04-17.29 19.55-19.88 17.25-4.69 68.73-4.69 86.41-4.69 13.58 0 47.09 0 69.72 2.13 6.85.64 12.69 1.47 16.7 2.56 9.51 2.59 17.01 10.21 19.55 19.88 4.62 17.529 4.62 54.109 4.62 54.109z" fill="#ff4656"/><path d="m366.596 274.751s0 36.569-4.62 54.099c-2.54 9.67-10.04 17.29-19.55 19.88-4.29 1.17-10.17 2.04-16.99 2.7 7.93-3.63 13.99-10.75 16.27-19.43 4.89-18.55 4.89-57.249 4.89-57.249s0-38.71-4.89-57.259c-2.25-8.57-8.19-15.62-15.98-19.29 6.85.64 12.69 1.47 16.7 2.56 9.51 2.59 17.01 10.21 19.55 19.88 4.62 17.529 4.62 54.109 4.62 54.109z" fill="#ed1d5d"/><path d="m234.103 242.93v63.632l51.814-31.816z" fill="#eef0f5"/></g></g><g><path d="m504.5 88.801h-66.5c-4.143 0-7.5 3.357-7.5 7.5s3.357 7.5 7.5 7.5h59v83.15h-8c-4.143 0-7.5 3.357-7.5 7.5v39.976c0 4.143 3.357 7.5 7.5 7.5h8v22.411c0 4.143 3.357 7.5 7.5 7.5s7.5-3.357 7.5-7.5v-29.911c0-4.143-3.357-7.5-7.5-7.5h-8v-24.976h8c4.143 0 7.5-3.357 7.5-7.5v-98.15c0-4.143-3.358-7.5-7.5-7.5z"/><path d="m504.5 0h-30c-4.143 0-7.5 3.357-7.5 7.5v7.476h-104.916c-2.086 0-4.029.864-5.418 2.315l-21.089 21.057c-1.409 1.407-2.201 3.316-2.201 5.308l-.001 45.146h-69.875v-43.852h7.5c4.142 0 7.5-3.357 7.5-7.5v-29.95c0-4.143-3.358-7.5-7.5-7.5h-30c-4.142 0-7.5 3.357-7.5 7.5v29.95c0 4.143 3.358 7.5 7.5 7.5h7.5v43.851h-69.875l-.001-45.146c0-1.991-.792-3.9-2.201-5.308l-21.059-21.026c-1.391-1.47-3.348-2.346-5.448-2.346h-104.916v-7.475c0-4.143-3.358-7.5-7.5-7.5h-30c-4.142 0-7.5 3.357-7.5 7.5v29.95c0 4.143 3.358 7.5 7.5 7.5h30c4.142 0 7.5-3.357 7.5-7.5v-7.475h101.809l16.815 16.79.001 42.035h-156.125c-4.142 0-7.5 3.357-7.5 7.5v98.15c0 4.143 3.358 7.5 7.5 7.5h8v24.976h-8c-4.142 0-7.5 3.357-7.5 7.5v211.654c0 4.143 3.358 7.5 7.5 7.5h213.772v14.21h-15.272c-4.142 0-7.5 3.357-7.5 7.5s3.358 7.5 7.5 7.5h15.272v14.21h-95.272c-4.142 0-7.5 3.357-7.5 7.5s3.358 7.5 7.5 7.5h260c4.143 0 7.5-3.357 7.5-7.5s-3.357-7.5-7.5-7.5h-95.272v-14.209h15.272c4.143 0 7.5-3.357 7.5-7.5s-3.357-7.5-7.5-7.5h-15.272v-14.21h213.772c4.143 0 7.5-3.357 7.5-7.5v-147.048c0-4.143-3.357-7.5-7.5-7.5s-7.5 3.357-7.5 7.5v139.548h-482v-196.654h8c4.142 0 7.5-3.357 7.5-7.5v-39.976c0-4.143-3.358-7.5-7.5-7.5h-8v-83.15h148.625v14.981h-102.625c-4.142 0-7.5 3.357-7.5 7.5v268.618c0 1.99.791 3.898 2.198 5.305l21.213 21.2c1.406 1.405 3.313 2.195 5.302 2.195h30.206c4.142 0 7.5-3.357 7.5-7.5s-3.358-7.5-7.5-7.5h-27.1l-16.819-16.808v-258.01h95.126v19.986c0 4.143 3.358 7.5 7.5 7.5s7.5-3.358 7.5-7.5v-19.986h69.874v19.986c0 4.143 3.358 7.5 7.5 7.5s7.5-3.357 7.5-7.5v-19.986h69.874v19.986c0 4.142 3.357 7.5 7.5 7.5 4.142 0 7.5-3.358 7.5-7.5v-19.986h95.126v258.01l-16.818 16.809h-279.413c-4.142 0-7.5 3.357-7.5 7.5s3.358 7.5 7.5 7.5h282.518c1.988 0 3.896-.79 5.302-2.195l21.213-21.2c1.407-1.406 2.198-3.314 2.198-5.305v-268.619c0-4.143-3.357-7.5-7.5-7.5h-102.626v-14.981h54.413c4.143 0 7.5-3.357 7.5-7.5s-3.357-7.5-7.5-7.5h-54.413l.001-42.035 16.815-16.79h101.81v7.475c0 4.143 3.357 7.5 7.5 7.5h30c4.143 0 7.5-3.357 7.5-7.5v-29.951c0-4.143-3.358-7.5-7.5-7.5zm-474.5 29.95h-15v-14.95h15zm206.272 423.631h39.456v14.21h-39.456zm0 29.21h39.456v14.209h-39.456zm12.228-364.009h-69.875v-14.981h69.875zm0-88.832v-14.95h15v14.95zm84.874 88.832h-69.874v-14.981h69.875zm163.626-88.832h-15v-14.95h15z"/><path d="m234.104 314.063c1.362 0 2.723-.371 3.925-1.108l51.813-31.816c2.221-1.364 3.575-3.784 3.575-6.392s-1.354-5.027-3.575-6.392l-51.813-31.816c-2.315-1.421-5.217-1.48-7.586-.153-2.37 1.325-3.838 3.829-3.838 6.545v63.633c0 2.716 1.468 5.22 3.838 6.545 1.138.636 2.4.954 3.661.954zm7.5-57.727 29.981 18.41-29.981 18.41z"/><path d="m171.564 208.003c3.998-1.085 6.358-5.206 5.272-9.203-1.086-3.998-5.206-6.358-9.204-5.271-12.098 3.286-21.617 12.943-24.841 25.199-4.814 18.261-4.869 54.485-4.869 56.019s.055 37.758 4.868 56.016c3.225 12.26 12.744 21.917 24.837 25.202 18.216 4.961 60.441 4.961 88.383 4.961s70.167 0 88.379-4.96c12.098-3.287 21.616-12.944 24.84-25.199 4.814-18.262 4.87-54.486 4.87-56.02s-.056-37.758-4.869-56.015c-3.225-12.26-12.743-21.917-24.837-25.202-16.327-4.446-58.261-4.961-88.383-4.961-10.424 0-32.116 0-52.032.928-4.138.193-7.335 3.704-7.143 7.841.193 4.139 3.709 7.313 7.841 7.144 19.567-.912 41.023-.912 51.334-.912 45.229 0 73.639 1.492 84.446 4.435 6.937 1.885 12.403 7.458 14.269 14.549 4.319 16.382 4.374 51.839 4.374 52.194 0 .356-.05 35.794-4.375 52.199-1.864 7.087-7.332 12.66-14.272 14.546-16.28 4.434-60.62 4.434-84.441 4.434s-68.161 0-84.446-4.435c-6.936-1.885-12.403-7.458-14.268-14.549-4.319-16.383-4.374-51.84-4.374-52.194 0-.356.055-35.813 4.375-52.199 1.863-7.089 7.33-12.662 14.266-14.547z"/></g></svg>